<svg width="64" height="64" viewBox="0 0 64 64" fill="none" xmlns="http://www.w3.org/2000/svg">
  <defs>
    <linearGradient id="surface" x1="10" y1="6" x2="55" y2="61" gradientUnits="userSpaceOnUse">
      <stop stop-color="#173B63"/>
      <stop offset="1" stop-color="#071E3C"/>
    </linearGradient>
    <linearGradient id="bar" x1="32" y1="49" x2="32" y2="21" gradientUnits="userSpaceOnUse">
      <stop stop-color="#178E8B"/>
      <stop offset="1" stop-color="#2BD3C2"/>
    </linearGradient>
    <linearGradient id="edge" x1="8" y1="5" x2="59" y2="59" gradientUnits="userSpaceOnUse">
      <stop stop-color="#6DE7DA" stop-opacity=".72"/>
      <stop offset=".52" stop-color="#2B6AA5" stop-opacity=".18"/>
      <stop offset="1" stop-color="#142E52"/>
    </linearGradient>
  </defs>

  <rect x="1" y="1" width="62" height="62" rx="17" fill="url(#surface)"/>
  <rect x="1.75" y="1.75" width="60.5" height="60.5" rx="16.25" stroke="url(#edge)" stroke-width="1.5"/>

  <path d="M12 18H52M12 30H52M12 42H52M20 12V52M32 12V52M44 12V52" stroke="#5D8BB0" stroke-opacity=".12" stroke-width="1"/>

  <rect x="14" y="39" width="7" height="11" rx="2.5" fill="url(#bar)" fill-opacity=".54"/>
  <rect x="24" y="33" width="7" height="17" rx="2.5" fill="url(#bar)" fill-opacity=".7"/>
  <rect x="34" y="27" width="7" height="23" rx="2.5" fill="url(#bar)" fill-opacity=".84"/>
  <rect x="44" y="19" width="7" height="31" rx="2.5" fill="url(#bar)"/>

  <path d="M14.5 36.5L27 30.5L37.5 24.5L49.5 15" stroke="#61E5D7" stroke-width="3" stroke-linecap="round" stroke-linejoin="round"/>
  <circle cx="14.5" cy="36.5" r="2.4" fill="#B5FFF6"/>
  <circle cx="27" cy="30.5" r="2.4" fill="#B5FFF6"/>
  <circle cx="37.5" cy="24.5" r="2.4" fill="#B5FFF6"/>
  <circle cx="49.5" cy="15" r="3" fill="#B5FFF6"/>
</svg>
